<?xml version="1.0" encoding="UTF-8" standalone="no"?>
<svg
   id="Layer_1"
   viewBox="0 0 525 525"
   version="1.1"
   xmlns="http://www.w3.org/2000/svg">
  <defs
     id="defs1">
    <style
       id="style1">
      .cls-1 {
        fill: #7c297d;
      }

      .cls-2 {
        fill: #f79a23;
      }

      .cls-3 {
        fill: #dd552c;
      }

      .cls-4 {
        fill: #d22128;
      }
    </style>
  </defs>
  <g
     id="g8"
     transform="translate(96.446722)">
    <g
       id="g7">
      <path
         class="cls-3"
         d="m 141.10772,209.8881 c 13.18698,-32.60813 27.90053,-65.1523 43.68789,-93.99705 -23.56659,-17.504102 -46.19569,-55.249012 -55.49307,-71.972166 -3.33924,3.793679 -5.50706,8.162973 -6.48998,11.717653 -8.75878,31.625206 22.4204,69.814453 -2.69294,55.861663 C 99.195483,99.871431 52.079144,74.40969 34.10714,99.716587 54.235178,125.5789 106.88046,190.64705 141.10772,209.8881 Z"
         id="path1" />
      <path
         class="cls-2"
         d="m 184.79561,115.89105 c 15.29758,-27.94934 31.59996,-52.428158 48.50152,-70.063545 0,0 -16.8578,24.401397 -40.93604,73.180625 14.58226,4.01585 56.11244,12.25624 113.96014,-2.68621 1.42221,-10.51256 -5.64508,-22.075366 -40.86367,-25.946466 -22.99266,-2.524631 27.59758,-54.9023 -9.05165,-79.673976 C 255.2227,9.9003286 254.05969,9.193432 252.92024,8.5605912 251.69159,8.1196224 250.39393,7.7156815 249.00875,7.3555009 206.20616,-3.8134649 200.27328,68.764616 183.19331,53.162399 155.59237,27.949754 138.17073,33.840559 129.30254,43.918885 c 9.29738,16.723153 31.92648,54.468063 55.49307,71.972165 z"
         id="path2" />
      <path
         class="cls-4"
         d="m 106.68185,303.83802 c 9.66261,-28.94573 21.28601,-61.46634 34.42587,-93.94992 C 106.88046,190.64705 54.235178,125.5789 34.10714,99.716587 c -3.593391,5.055993 -6.049015,12.108133 -6.866995,21.752213 -4.389491,51.80206 49.051889,90.15288 38.397948,97.15789 -14.092488,9.26708 -42.141134,-22.26051 -53.19565,-2.22841 16.022989,20.58416 48.661414,57.77701 94.239407,87.43974 z"
         id="path3" />
      <path
         class="cls-3"
         d="m 254.75649,192.11807 c -27.05899,-9.65082 28.27586,-35.53334 46.2445,-62.99122 2.2991,-3.51092 4.67562,-8.04852 5.32024,-12.80493 -57.8477,14.94245 -99.37788,6.70206 -113.96014,2.68621 -12.46495,25.25641 -26.85871,57.08358 -41.87016,95.45797 15.63419,6.68522 79.47032,31.37947 169.63666,31.50739 15.15957,-39.48523 -39.69056,-44.69943 -65.3711,-53.85542 z"
         id="path4" />
      <path
         class="cls-4"
         d="m 117.13719,309.04886 c 15.90013,4.95501 68.58412,19.75607 124.53666,17.52767 7.51667,-20.35189 -20.58583,-22.33793 -22.87483,-38.66051 -1.77229,-12.62989 73.95653,10.61354 98.32258,-35.31117 1.23202,-2.32266 2.19306,-4.51404 3.00599,-6.63136 -90.16634,-0.12792 -154.00247,-24.82217 -169.63666,-31.50739 -10.97036,28.04359 -22.25546,59.51732 -33.35374,94.58276 z"
         id="path5" />
      <path
         class="cls-1"
         d="m 117.13719,309.04886 c -7.1447,22.5702 -14.19347,46.6821 -21.035221,72.16404 -2.427011,9.03481 -4.82541,18.23793 -7.190148,27.64302 53.106449,17.53104 102.008539,0.0404 103.666379,-21.63776 0.0135,-0.17168 -0.0185,-0.29959 -0.008,-0.46454 1.264,-22.96067 -33.15008,-10.23317 -32.33547,-24.03785 0.81798,-13.90566 60.08116,-0.0808 78.40829,-29.89499 1.40538,-2.28563 2.32098,-4.31543 3.03124,-6.24425 -55.95254,2.22841 -108.63653,-12.57266 -124.53666,-17.52767 z"
         id="path6" />
      <path
         class="cls-1"
         d="m 12.442443,216.39828 c -0.77422,1.4037 -1.472701,3.02619 -2.068514,4.96511 -10.2920772,33.44967 62.484608,78.38473 52.583007,88.1803 -8.925411,8.82611 -20.557226,-11.34401 -34.900494,-3.01273 -1.572003,0.9156 -3.16757,2.0702 -4.805213,3.74992 -16.2215937,16.6188 -0.254147,64.4959 45.769869,90.05189 -10.739778,36.06182 -21.43243,76.35156 -31.899549,118.48596 3.797044,-1.32964 8.34138,-2.66264 9.472414,-6.24425 1.698235,-6.98144 12.193966,-49.46256 29.235223,-107.09483 0,0 3.110345,-11.80517 8.804228,-31.25493 5.264697,-17.98547 12.746019,-42.51478 22.048436,-70.3867 C 61.103857,274.17529 28.465432,236.98244 12.442443,216.39828 Z"
         id="path7" />
    </g>
  </g>
</svg>
